<mxfile host="Electron" modified="2023-08-15T06:28:55.850Z" agent="Mozilla/5.0 (X11; Linux x86_64) AppleWebKit/537.36 (KHTML, like Gecko) draw.io/21.6.8 Chrome/114.0.5735.289 Electron/25.5.0 Safari/537.36" etag="PQg8TV-S2RFfwVt--fcr" version="21.6.8" type="device">
  <diagram id="LsOUuTbXcoM-gEZGROY0" name="第 1 页">
    <mxGraphModel dx="1115" dy="1003" grid="1" gridSize="10" guides="1" tooltips="1" connect="1" arrows="1" fold="1" page="1" pageScale="1" pageWidth="827" pageHeight="1169" math="0" shadow="0">
      <root>
        <mxCell id="0" />
        <mxCell id="1" parent="0" />
        <mxCell id="tEYaN6Jl_NfmgnvWKejs-3" style="edgeStyle=orthogonalEdgeStyle;rounded=0;orthogonalLoop=1;jettySize=auto;html=1;" parent="1" source="tEYaN6Jl_NfmgnvWKejs-1" target="tEYaN6Jl_NfmgnvWKejs-2" edge="1">
          <mxGeometry relative="1" as="geometry" />
        </mxCell>
        <mxCell id="tEYaN6Jl_NfmgnvWKejs-1" value="摄像头" style="rounded=0;whiteSpace=wrap;html=1;verticalAlign=bottom;" parent="1" vertex="1">
          <mxGeometry x="110" y="400" width="120" height="60" as="geometry" />
        </mxCell>
        <mxCell id="tEYaN6Jl_NfmgnvWKejs-2" value="ZYNQ Linux APP" style="rounded=0;whiteSpace=wrap;html=1;verticalAlign=bottom;" parent="1" vertex="1">
          <mxGeometry x="300" y="330" width="390" height="200" as="geometry" />
        </mxCell>
        <mxCell id="tEYaN6Jl_NfmgnvWKejs-4" value="1" style="text;html=1;align=center;verticalAlign=middle;resizable=0;points=[];autosize=1;strokeColor=none;fillColor=none;" parent="1" vertex="1">
          <mxGeometry x="170" y="470" width="20" height="20" as="geometry" />
        </mxCell>
        <mxCell id="tEYaN6Jl_NfmgnvWKejs-5" value="2" style="text;html=1;align=center;verticalAlign=middle;resizable=0;points=[];autosize=1;strokeColor=none;fillColor=none;" parent="1" vertex="1">
          <mxGeometry x="250" y="410" width="20" height="20" as="geometry" />
        </mxCell>
        <mxCell id="tEYaN6Jl_NfmgnvWKejs-19" style="edgeStyle=orthogonalEdgeStyle;rounded=0;orthogonalLoop=1;jettySize=auto;html=1;exitX=1;exitY=0.5;exitDx=0;exitDy=0;" parent="1" source="tEYaN6Jl_NfmgnvWKejs-6" target="tEYaN6Jl_NfmgnvWKejs-8" edge="1">
          <mxGeometry relative="1" as="geometry" />
        </mxCell>
        <mxCell id="tEYaN6Jl_NfmgnvWKejs-6" value="通信程序驱动" style="rounded=0;whiteSpace=wrap;html=1;" parent="1" vertex="1">
          <mxGeometry x="330" y="370" width="50" height="120" as="geometry" />
        </mxCell>
        <mxCell id="tEYaN6Jl_NfmgnvWKejs-7" value="3" style="text;html=1;align=center;verticalAlign=middle;resizable=0;points=[];autosize=1;strokeColor=none;fillColor=none;" parent="1" vertex="1">
          <mxGeometry x="345" y="490" width="20" height="20" as="geometry" />
        </mxCell>
        <mxCell id="tEYaN6Jl_NfmgnvWKejs-20" style="edgeStyle=orthogonalEdgeStyle;rounded=0;orthogonalLoop=1;jettySize=auto;html=1;exitX=1;exitY=0.5;exitDx=0;exitDy=0;entryX=0;entryY=0.5;entryDx=0;entryDy=0;" parent="1" source="tEYaN6Jl_NfmgnvWKejs-8" target="tEYaN6Jl_NfmgnvWKejs-9" edge="1">
          <mxGeometry relative="1" as="geometry" />
        </mxCell>
        <mxCell id="tEYaN6Jl_NfmgnvWKejs-8" value="&amp;nbsp;图像处理的识别算法" style="rounded=0;whiteSpace=wrap;html=1;" parent="1" vertex="1">
          <mxGeometry x="400" y="370" width="50" height="120" as="geometry" />
        </mxCell>
        <mxCell id="tEYaN6Jl_NfmgnvWKejs-21" style="edgeStyle=orthogonalEdgeStyle;rounded=0;orthogonalLoop=1;jettySize=auto;html=1;exitX=1;exitY=0.5;exitDx=0;exitDy=0;" parent="1" source="tEYaN6Jl_NfmgnvWKejs-9" target="tEYaN6Jl_NfmgnvWKejs-10" edge="1">
          <mxGeometry relative="1" as="geometry" />
        </mxCell>
        <mxCell id="tEYaN6Jl_NfmgnvWKejs-9" value="图像识别的参数调节" style="rounded=0;whiteSpace=wrap;html=1;" parent="1" vertex="1">
          <mxGeometry x="470" y="370" width="50" height="120" as="geometry" />
        </mxCell>
        <mxCell id="tEYaN6Jl_NfmgnvWKejs-24" style="edgeStyle=orthogonalEdgeStyle;rounded=0;orthogonalLoop=1;jettySize=auto;html=1;exitX=1;exitY=0.5;exitDx=0;exitDy=0;entryX=0;entryY=0.5;entryDx=0;entryDy=0;" parent="1" source="tEYaN6Jl_NfmgnvWKejs-10" target="tEYaN6Jl_NfmgnvWKejs-11" edge="1">
          <mxGeometry relative="1" as="geometry" />
        </mxCell>
        <mxCell id="tEYaN6Jl_NfmgnvWKejs-10" value="判断的主逻辑和控制程序" style="rounded=0;whiteSpace=wrap;html=1;" parent="1" vertex="1">
          <mxGeometry x="540" y="370" width="50" height="120" as="geometry" />
        </mxCell>
        <mxCell id="tEYaN6Jl_NfmgnvWKejs-25" style="edgeStyle=orthogonalEdgeStyle;rounded=0;orthogonalLoop=1;jettySize=auto;html=1;exitX=1;exitY=0.5;exitDx=0;exitDy=0;entryX=0;entryY=0.5;entryDx=0;entryDy=0;" parent="1" source="tEYaN6Jl_NfmgnvWKejs-11" target="tEYaN6Jl_NfmgnvWKejs-12" edge="1">
          <mxGeometry relative="1" as="geometry" />
        </mxCell>
        <mxCell id="tEYaN6Jl_NfmgnvWKejs-11" value="锁驱动" style="rounded=0;whiteSpace=wrap;html=1;" parent="1" vertex="1">
          <mxGeometry x="610" y="370" width="50" height="120" as="geometry" />
        </mxCell>
        <mxCell id="tEYaN6Jl_NfmgnvWKejs-12" value="锁" style="rounded=0;whiteSpace=wrap;html=1;" parent="1" vertex="1">
          <mxGeometry x="720" y="405" width="50" height="50" as="geometry" />
        </mxCell>
        <mxCell id="tEYaN6Jl_NfmgnvWKejs-15" value="4" style="text;html=1;align=center;verticalAlign=middle;resizable=0;points=[];autosize=1;strokeColor=none;fillColor=none;" parent="1" vertex="1">
          <mxGeometry x="414" y="490" width="20" height="20" as="geometry" />
        </mxCell>
        <mxCell id="tEYaN6Jl_NfmgnvWKejs-16" value="5" style="text;html=1;align=center;verticalAlign=middle;resizable=0;points=[];autosize=1;strokeColor=none;fillColor=none;" parent="1" vertex="1">
          <mxGeometry x="485" y="490" width="20" height="20" as="geometry" />
        </mxCell>
        <mxCell id="tEYaN6Jl_NfmgnvWKejs-17" value="6" style="text;html=1;align=center;verticalAlign=middle;resizable=0;points=[];autosize=1;strokeColor=none;fillColor=none;" parent="1" vertex="1">
          <mxGeometry x="555" y="490" width="20" height="20" as="geometry" />
        </mxCell>
        <mxCell id="tEYaN6Jl_NfmgnvWKejs-18" value="7" style="text;html=1;align=center;verticalAlign=middle;resizable=0;points=[];autosize=1;strokeColor=none;fillColor=none;" parent="1" vertex="1">
          <mxGeometry x="625" y="490" width="20" height="20" as="geometry" />
        </mxCell>
        <mxCell id="tEYaN6Jl_NfmgnvWKejs-26" value="8" style="text;html=1;align=center;verticalAlign=middle;resizable=0;points=[];autosize=1;strokeColor=none;fillColor=none;" parent="1" vertex="1">
          <mxGeometry x="730" y="460" width="20" height="20" as="geometry" />
        </mxCell>
      </root>
    </mxGraphModel>
  </diagram>
</mxfile>
